%TF.GenerationSoftware,KiCad,Pcbnew,8.0.5*%
%TF.CreationDate,2025-08-28T15:22:09-04:00*%
%TF.ProjectId,ugrids-panel,75677269-6473-42d7-9061-6e656c2e6b69,rev?*%
%TF.SameCoordinates,Original*%
%TF.FileFunction,Copper,L1,Top*%
%TF.FilePolarity,Positive*%
%FSLAX46Y46*%
G04 Gerber Fmt 4.6, Leading zero omitted, Abs format (unit mm)*
G04 Created by KiCad (PCBNEW 8.0.5) date 2025-08-28 15:22:09*
%MOMM*%
%LPD*%
G01*
G04 APERTURE LIST*
%ADD10C,1.000000*%
%TA.AperFunction,NonConductor*%
%ADD11C,1.000000*%
%TD*%
G04 APERTURE END LIST*
D10*
D11*
G36*
X71295861Y-40073365D02*
G01*
X71295861Y-35462060D01*
X71800222Y-35462060D01*
X71830752Y-35492591D01*
X71830752Y-37313421D01*
X71827089Y-37367154D01*
X71823425Y-37414782D01*
X71847865Y-37665566D01*
X71932348Y-37907281D01*
X72077177Y-38110117D01*
X72132392Y-38163386D01*
X72332175Y-38308286D01*
X72567364Y-38405691D01*
X72818715Y-38438159D01*
X73070026Y-38408721D01*
X73312256Y-38309460D01*
X73472064Y-38189032D01*
X73642424Y-37990279D01*
X73752333Y-37769545D01*
X73792023Y-37610176D01*
X73805338Y-37359122D01*
X73805456Y-37323191D01*
X73805456Y-35462060D01*
X74311039Y-35462060D01*
X74341569Y-35492591D01*
X74341569Y-38215898D01*
X74344011Y-38285508D01*
X74385533Y-38394196D01*
X74488115Y-38458920D01*
X74623669Y-38298941D01*
X74623669Y-38211013D01*
X75016900Y-38211013D01*
X75020564Y-38297720D01*
X75024228Y-38355117D01*
X75002246Y-38515096D01*
X74920424Y-38705605D01*
X74743825Y-38879056D01*
X74727473Y-38888787D01*
X74487851Y-38969824D01*
X74408736Y-38979157D01*
X74170575Y-38922718D01*
X74115644Y-38894893D01*
X73942290Y-38719913D01*
X73938568Y-38712933D01*
X73853083Y-38518759D01*
X73823774Y-38421062D01*
X73677657Y-38618905D01*
X73459002Y-38793062D01*
X73222474Y-38899993D01*
X72943754Y-38964499D01*
X72811387Y-38979157D01*
X72567097Y-38941948D01*
X72316137Y-38859516D01*
X72142162Y-38759339D01*
X71956843Y-38599665D01*
X71830752Y-38443044D01*
X71830752Y-40073365D01*
X71295861Y-40073365D01*
G37*
G36*
X75637277Y-36459792D02*
G01*
X75647452Y-36204725D01*
X75677978Y-35956099D01*
X75728854Y-35713912D01*
X75800080Y-35478165D01*
X75891657Y-35248858D01*
X75926705Y-35173854D01*
X76044385Y-34957641D01*
X76204795Y-34724929D01*
X76390099Y-34513253D01*
X76600296Y-34322615D01*
X76765679Y-34199325D01*
X76977069Y-34070668D01*
X77235953Y-33954211D01*
X77508044Y-33873986D01*
X77751776Y-33834058D01*
X78005212Y-33820748D01*
X78018645Y-33820748D01*
X78294778Y-33833800D01*
X78572714Y-33872955D01*
X78852453Y-33938214D01*
X79086946Y-34012536D01*
X79322692Y-34104986D01*
X79512190Y-34191997D01*
X79410829Y-34770853D01*
X79197093Y-34629942D01*
X79024926Y-34525389D01*
X78791436Y-34426614D01*
X78615819Y-34371516D01*
X78363271Y-34315583D01*
X78116622Y-34291692D01*
X78018645Y-34289695D01*
X77731350Y-34312235D01*
X77463889Y-34379855D01*
X77216264Y-34492554D01*
X76988474Y-34650334D01*
X76780520Y-34853194D01*
X76715609Y-34930832D01*
X76568903Y-35137210D01*
X76447062Y-35355633D01*
X76350086Y-35586102D01*
X76277976Y-35828615D01*
X76230731Y-36083174D01*
X76208352Y-36349778D01*
X76206363Y-36459792D01*
X76219064Y-36731381D01*
X76257167Y-36989732D01*
X76320673Y-37234846D01*
X76409581Y-37466722D01*
X76523891Y-37685359D01*
X76663603Y-37890760D01*
X76726600Y-37969213D01*
X76894631Y-38147583D01*
X77110671Y-38321721D01*
X77342425Y-38452324D01*
X77589893Y-38539392D01*
X77853074Y-38582927D01*
X77990557Y-38588369D01*
X78255241Y-38574555D01*
X78509330Y-38539082D01*
X78781126Y-38481781D01*
X79033474Y-38413735D01*
X79033474Y-37025214D01*
X77931939Y-37025214D01*
X77931939Y-36556268D01*
X79569587Y-36556268D01*
X79569587Y-38679960D01*
X79321272Y-38787704D01*
X79073970Y-38877381D01*
X78827682Y-38948991D01*
X78582407Y-39002532D01*
X78338146Y-39038006D01*
X78046372Y-39056725D01*
X77997884Y-39057315D01*
X77694489Y-39038740D01*
X77406359Y-38983016D01*
X77133494Y-38890143D01*
X76875894Y-38760121D01*
X76633559Y-38592949D01*
X76406490Y-38388629D01*
X76319936Y-38296498D01*
X76159938Y-38101104D01*
X76021273Y-37895940D01*
X75903941Y-37681006D01*
X75807942Y-37456303D01*
X75733276Y-37221830D01*
X75679943Y-36977587D01*
X75647944Y-36723575D01*
X75637277Y-36459792D01*
G37*
G36*
X80524577Y-38901000D02*
G01*
X80524577Y-35462060D01*
X81025274Y-35462060D01*
X81025274Y-36027482D01*
X81020390Y-36198452D01*
X81113202Y-36045801D01*
X81270406Y-35849778D01*
X81373321Y-35744161D01*
X81568377Y-35594619D01*
X81779985Y-35490148D01*
X82029964Y-35417269D01*
X82278736Y-35386230D01*
X82361283Y-35382681D01*
X82361283Y-35851628D01*
X82114598Y-35875747D01*
X81889894Y-35931006D01*
X81656251Y-36033660D01*
X81482009Y-36147161D01*
X81305238Y-36321184D01*
X81173343Y-36536459D01*
X81165714Y-36552605D01*
X81083902Y-36797973D01*
X81048957Y-37057629D01*
X81046035Y-37165654D01*
X81046035Y-38901000D01*
X80524577Y-38901000D01*
G37*
G36*
X82942581Y-38901000D02*
G01*
X82942581Y-35462060D01*
X83464039Y-35462060D01*
X83464039Y-38901000D01*
X82942581Y-38901000D01*
G37*
G36*
X82942581Y-34524168D02*
G01*
X82942581Y-33977064D01*
X83464039Y-33977064D01*
X83464039Y-34524168D01*
X82942581Y-34524168D01*
G37*
G36*
X87086161Y-38901000D02*
G01*
X86558596Y-38901000D01*
X86558596Y-38557838D01*
X86554933Y-38457699D01*
X86395650Y-38660884D01*
X86178121Y-38831988D01*
X85922735Y-38937909D01*
X85668216Y-38977120D01*
X85590173Y-38979157D01*
X85320209Y-38945726D01*
X85073294Y-38845434D01*
X84849431Y-38678281D01*
X84672458Y-38477174D01*
X84648617Y-38444265D01*
X84501105Y-38201076D01*
X84389825Y-37939537D01*
X84323278Y-37700756D01*
X84283350Y-37448494D01*
X84270041Y-37182751D01*
X84804933Y-37182751D01*
X84817487Y-37445095D01*
X84859819Y-37697715D01*
X84911178Y-37864189D01*
X85024540Y-38092487D01*
X85183509Y-38272074D01*
X85396236Y-38409894D01*
X85503467Y-38456478D01*
X85745802Y-38507640D01*
X85813655Y-38510211D01*
X86057240Y-38471538D01*
X86288736Y-38341135D01*
X86438917Y-38182926D01*
X86485323Y-38107210D01*
X86523181Y-38048592D01*
X86542720Y-38004628D01*
X86554933Y-37942346D01*
X86558596Y-37850755D01*
X86558596Y-36364538D01*
X86471291Y-36131449D01*
X86355875Y-36016491D01*
X86136056Y-35893759D01*
X85879601Y-35852849D01*
X85647570Y-35880937D01*
X85417147Y-35969197D01*
X85369133Y-35994510D01*
X85164618Y-36142136D01*
X85095581Y-36214328D01*
X84960962Y-36430521D01*
X84891639Y-36605117D01*
X84829403Y-36858549D01*
X84806287Y-37102933D01*
X84804933Y-37182751D01*
X84270041Y-37182751D01*
X84284509Y-36900851D01*
X84327915Y-36637670D01*
X84400257Y-36393207D01*
X84501537Y-36167464D01*
X84631754Y-35960440D01*
X84681590Y-35895591D01*
X84868488Y-35696213D01*
X85068009Y-35545804D01*
X85311488Y-35433872D01*
X85571454Y-35385901D01*
X85639022Y-35383903D01*
X85882420Y-35405641D01*
X86132540Y-35483722D01*
X86352740Y-35618590D01*
X86543021Y-35810245D01*
X86564702Y-35838194D01*
X86564702Y-33977064D01*
X87086161Y-33977064D01*
X87086161Y-38901000D01*
G37*
G36*
X87761492Y-38605466D02*
G01*
X87848198Y-38113316D01*
X88082743Y-38248198D01*
X88313767Y-38355174D01*
X88578846Y-38444708D01*
X88839133Y-38496258D01*
X89058422Y-38510211D01*
X89313485Y-38490730D01*
X89555047Y-38409586D01*
X89640941Y-38345347D01*
X89783694Y-38134344D01*
X89811911Y-37974098D01*
X89738729Y-37733184D01*
X89670250Y-37657803D01*
X89461613Y-37515441D01*
X89357619Y-37470958D01*
X89115169Y-37425287D01*
X88948512Y-37394021D01*
X88694546Y-37335371D01*
X88456658Y-37256431D01*
X88380648Y-37224272D01*
X88162966Y-37087191D01*
X87989391Y-36904885D01*
X87978868Y-36890881D01*
X87857904Y-36664282D01*
X87810505Y-36410155D01*
X87810341Y-36393847D01*
X87839879Y-36143345D01*
X87862853Y-36064119D01*
X87977317Y-35835630D01*
X88042371Y-35744161D01*
X88225611Y-35579941D01*
X88425833Y-35481600D01*
X88671168Y-35414814D01*
X88934560Y-35386288D01*
X89044988Y-35383903D01*
X89064528Y-35383903D01*
X89338309Y-35401457D01*
X89580246Y-35445619D01*
X89824404Y-35516662D01*
X90070783Y-35614586D01*
X90177054Y-35664782D01*
X90094011Y-36145940D01*
X89842373Y-36031738D01*
X89597163Y-35945585D01*
X89358381Y-35887482D01*
X89093359Y-35855425D01*
X88996140Y-35852849D01*
X88750194Y-35870887D01*
X88509696Y-35953623D01*
X88444151Y-36005501D01*
X88310614Y-36217401D01*
X88292720Y-36338892D01*
X88373130Y-36573174D01*
X88397745Y-36605117D01*
X88599819Y-36751728D01*
X88706712Y-36789520D01*
X88951134Y-36840146D01*
X89085288Y-36867678D01*
X89325456Y-36919011D01*
X89548129Y-36978808D01*
X89781893Y-37089489D01*
X89989054Y-37244914D01*
X90075693Y-37331739D01*
X90220389Y-37548543D01*
X90291319Y-37804044D01*
X90299175Y-37935019D01*
X90271626Y-38179429D01*
X90177685Y-38429271D01*
X90034431Y-38639119D01*
X90017075Y-38659199D01*
X89827771Y-38813866D01*
X89577223Y-38917915D01*
X89303099Y-38967909D01*
X89065749Y-38979157D01*
X88816364Y-38966020D01*
X88569211Y-38926607D01*
X88324291Y-38860919D01*
X88081603Y-38768956D01*
X87841148Y-38650717D01*
X87761492Y-38605466D01*
G37*
M02*
